# Blender v2.78 (sub 0) OBJ File: ''
# www.blender.org
mtllib climber.mtl
o Frame
v -0.500000 0.050000 0.500000
v 0.400000 0.050000 0.400000
v -0.400000 0.050000 0.400000
v 0.500000 0.050000 0.500000
v 0.400000 0.050000 -0.400000
v -0.500000 0.050000 -0.500000
v -0.400000 0.050000 -0.400000
v 0.500000 0.050000 -0.500000
v -0.500000 -0.050000 0.500000
v 0.400000 -0.050000 -0.400000
v -0.400000 -0.050000 0.400000
v 0.500000 -0.050000 0.500000
v -0.500000 -0.050000 -0.500000
v -0.400000 -0.050000 -0.400000
v 0.400000 -0.050000 0.400000
v 0.500000 -0.050000 -0.500000
vn -0.0000 1.0000 0.0000
vn 0.0000 0.0000 1.0000
vn -1.0000 0.0000 0.0000
vn 1.0000 0.0000 0.0000
vn 0.0000 0.0000 -1.0000
usemtl torqoise
s 1
f 1//1 2//1 3//1
f 4//1 5//1 2//1
f 6//1 3//1 7//1
f 8//1 7//1 5//1
f 9//2 4//2 1//2
f 10//3 2//3 5//3
f 11//4 7//4 3//4
f 12//4 8//4 4//4
f 13//3 1//3 6//3
f 14//2 5//2 7//2
f 15//5 3//5 2//5
f 16//5 6//5 8//5
f 1//1 4//1 2//1
f 4//1 8//1 5//1
f 6//1 1//1 3//1
f 8//1 6//1 7//1
f 9//2 12//2 4//2
f 10//3 15//3 2//3
f 11//4 14//4 7//4
f 12//4 16//4 8//4
f 13//3 9//3 1//3
f 14//2 10//2 5//2
f 15//5 11//5 3//5
f 16//5 13//5 6//5
