# Blender v2.79 (sub 0) OBJ File: 'grid.blend'
# www.blender.org
mtllib grid.mtl
o Mball.001_Mesh
v 0.350000 0.036124 -0.450000
v 0.350000 0.036124 0.450000
v 0.449806 0.034850 0.353981
v 0.451898 0.034764 -0.343015
v -0.350000 0.036124 0.450000
v -0.450000 0.036124 -0.350000
v -0.350000 0.036124 -0.450000
v -0.450000 0.036124 0.350000
v 0.515028 -0.008669 0.350000
v -0.515028 -0.008669 0.350000
v 0.350000 -0.006372 0.515028
v -0.350000 -0.006372 0.515028
v -0.350000 -0.008762 -0.515028
v 0.350000 -0.008762 -0.515028
v 0.515028 -0.009559 -0.350000
v -0.515028 -0.008762 -0.350000
vn 0.1870 0.8205 0.5401
vn -0.1846 0.9241 0.3345
vn -0.1879 0.8212 0.5387
vn -0.3470 0.9183 -0.1904
vn -0.5572 0.8088 0.1878
vn -0.3462 0.9194 0.1866
vn 0.5543 0.8123 0.1813
vn 0.3424 0.9238 -0.1714
vn 0.3513 0.9156 0.1958
vn -0.1921 0.8076 -0.5575
vn -0.1900 0.9185 -0.3468
vn 0.2027 0.9173 -0.3426
vn 0.1818 0.9252 0.3331
vn 0.1962 0.8099 -0.5527
vn -0.5575 0.8076 -0.1921
vn 0.5483 0.8123 -0.1987
usemtl cyanPlastic
s 1
f 11//1 5//2 12//3
f 6//4 10//5 8//6
f 9//7 4//8 3//9
f 13//10 6//4 7//11
f 4//8 1//12 7//11
f 11//1 3//9 2//13
f 4//8 14//14 1//12
f 12//3 8//6 10//5
f 14//14 7//11 1//12
f 11//1 2//13 5//2
f 6//4 16//15 10//5
f 9//7 15//16 4//8
f 13//10 16//15 6//4
f 7//11 6//4 4//8
f 6//4 8//6 4//8
f 8//6 5//2 4//8
f 5//2 2//13 4//8
f 2//13 3//9 4//8
f 11//1 9//7 3//9
f 4//8 15//16 14//14
f 12//3 5//2 8//6
f 14//14 13//10 7//11
